#N canvas 964 108 1040 741 10;
#X obj 39 229 sendOSC;
#X msg 57 91 disconnect;
#X msg 99 254 connect localhost 9000;
#X text 184 59 < connect to localhost this machine) on port 9000;
#X text 133 90 < disconnect from port/machine;
#X floatatom 144 178 5 0 0 0 - - -;
#X text 472 281 < receive on port 9000;
#X floatatom 320 417 10 0 0 0 - - -;
#X msg 144 206 send /1/bang \$1;
#X obj 36 390 bng 15 250 50 0 empty empty empty 17 7 0 10 -1 -1 -1
;
#X obj 677 26 bng 15 250 50 0 empty empty empty 17 7 0 10 -1 -1 -1
;
#X obj 32 8 cnv 15 400 30 empty empty Example_OSC_send_patch 20 12
0 14 -204786 -66577 0;
#X obj 381 226 cnv 15 400 30 empty empty Example_OSC_receive_patch
20 12 0 14 -204786 -66577 0;
#X msg 144 139 send /1/bang 7;
#X text 179 179 < drag to send a number to address;
#X text 255 139 < send a number to url/address;
#X obj 36 41 cnv 15 100 20 empty empty empty 20 12 0 14 -257985 -66577
0;
#X text 40 43 #1 CLICK HERE;
#X obj 142 115 cnv 15 170 20 empty empty empty 20 12 0 14 -257985 -66577
0;
#X text 143 117 #2 SEND A MESSAGE / NUMBER;
#X obj 387 283 dumpOSC 7000;
#X floatatom 421 452 10 0 0 0 - - -;
#X floatatom 460 423 10 0 0 0 - - -;
#X msg 830 417 \; pd dsp 1;
#X text 845 454 ON;
#X msg 904 419 \; pd dsp 0;
#X text 924 456 OFF;
#X obj 255 563 *~;
#X floatatom 255 478 0 0 0 0 - - -;
#X floatatom 129 503 0 0 0 0 - - -;
#X obj 165 583 +~;
#X msg 240 623 bang;
#X text 282 623 <-- click to graph;
#X obj 240 647 tabwrite~ fm-output;
#X floatatom 277 533 0 0 0 0 - - -;
#X text 162 470 carrier;
#X text 161 488 frequency;
#X text 240 454 frequency;
#X text 241 437 modulation;
#X obj 164 627 osc~;
#X text 48 609 "carrier";
#X text 30 627 oscillator -->;
#X text 43 544 add modulator;
#X text 42 562 to carrier;
#X text 40 581 frequency -->;
#X text 316 545 index;
#X text 318 526 modulation;
#X obj 255 503 osc~;
#X obj 159 665 output~;
#X obj 148 440 *;
#X floatatom 202 378 5 0 0 0 - - -;
#X obj 380 506 *;
#X obj 246 306 bang;
#X obj 596 461 print;
#N canvas 723 271 450 300 drum 1;
#X obj 76 87 noise~;
#X obj 133 87 line~;
#X obj 76 141 *~;
#X obj 68 263 dac~;
#X obj 76 236 *~ 0;
#X obj 109 222 hsl 128 15 0 1 0 0 empty empty Volume_0-1 -2 -6 0 8
-262144 -1 -1 7400 1;
#N canvas 0 0 450 300 (subpatch) 0;
#X array noise 5000 float 0;
#X coords 0 1 4999 -1 200 80 1;
#X restore 391 112 graph;
#N canvas 0 0 450 300 (subpatch) 0;
#X array line 5000 float 0;
#X coords 0 1 4999 -1 200 80 1;
#X restore 391 29 graph;
#N canvas 0 0 450 300 (subpatch) 0;
#X array noise_and_line 5000 float 0;
#X coords 0 1 4999 -1 200 80 1;
#X restore 391 196 graph;
#X obj 196 140 tabwrite~ noise;
#X obj 218 117 tabwrite~ line;
#X obj 155 194 tabwrite~ noise_and_line;
#X msg 69 305 \; line resize \$1 \; noise resize \$1 \; noise_and_line
resize \$1;
#X msg 69 284 5000;
#X msg 133 59 1 \, 0 50;
#X obj 257 21 bng 15 250 50 0 empty empty empty 0 -6 0 8 -241291 -1
-1;
#X obj 76 177 lop~ 400;
#X floatatom 127 155 5 0 0 0 - - -;
#X obj 259 -3 inlet;
#X connect 0 0 2 0;
#X connect 0 0 9 0;
#X connect 1 0 2 1;
#X connect 1 0 10 0;
#X connect 2 0 16 0;
#X connect 4 0 3 0;
#X connect 4 0 3 1;
#X connect 5 0 4 1;
#X connect 13 0 12 0;
#X connect 14 0 1 0;
#X connect 15 0 14 0;
#X connect 15 0 10 0;
#X connect 15 0 11 0;
#X connect 15 0 9 0;
#X connect 16 0 4 0;
#X connect 16 0 11 0;
#X connect 17 0 16 1;
#X connect 18 0 15 0;
#X restore 703 563 pd drum;
#X obj 702 529 bng 15 250 50 0 empty empty empty 17 7 0 10 -262144
-1 -1;
#X obj 677 352 OSCroute /events;
#X obj 683 394 unpack s s s;
#X obj 704 470 select A;
#X obj 272 276 bng 15 250 50 0 empty empty empty 17 7 0 10 -262144
-1 -1;
#X obj 349 330 OSCroute /device0;
#X msg 206 345 1000;
#X obj 467 619 cnv 15 170 20 empty empty empty 20 12 0 14 -257985 -66577
0;
#X text 469 614 position_x position_y position_z force_x force_y force_z
velocity_x velocity_y velocity_z (hold other 0/1);
#X obj 309 371 unpack f f f f f f f f f f;
#X floatatom 535 403 10 0 0 0 - - -;
#X connect 1 0 0 0;
#X connect 2 0 0 0;
#X connect 5 0 8 0;
#X connect 7 0 49 0;
#X connect 8 0 0 0;
#X connect 10 0 9 0;
#X connect 13 0 0 0;
#X connect 20 0 56 0;
#X connect 20 0 60 0;
#X connect 21 0 51 0;
#X connect 27 0 30 1;
#X connect 28 0 47 0;
#X connect 29 0 30 0;
#X connect 30 0 39 0;
#X connect 31 0 33 0;
#X connect 34 0 27 1;
#X connect 39 0 33 0;
#X connect 39 0 48 0;
#X connect 39 0 48 1;
#X connect 47 0 27 0;
#X connect 49 0 29 0;
#X connect 50 0 49 1;
#X connect 50 0 51 1;
#X connect 51 0 28 0;
#X connect 52 0 61 0;
#X connect 55 0 54 0;
#X connect 56 0 57 0;
#X connect 56 0 53 0;
#X connect 57 0 58 0;
#X connect 58 0 55 0;
#X connect 59 0 52 0;
#X connect 60 0 64 0;
#X connect 61 0 50 0;
#X connect 64 3 7 0;
#X connect 64 4 21 0;
#X connect 64 5 22 0;
#X connect 64 9 65 0;
